<?xml version="1.0" encoding="UTF-8" standalone="no"?>
<svg
   xmlns:ooo="http://xml.openoffice.org/svg/export"
   xmlns:dc="http://purl.org/dc/elements/1.1/"
   xmlns:cc="http://creativecommons.org/ns#"
   xmlns:rdf="http://www.w3.org/1999/02/22-rdf-syntax-ns#"
   xmlns:svg="http://www.w3.org/2000/svg"
   xmlns="http://www.w3.org/2000/svg"
   xmlns:sodipodi="http://sodipodi.sourceforge.net/DTD/sodipodi-0.dtd"
   xmlns:inkscape="http://www.inkscape.org/namespaces/inkscape"
   version="1.2"
   width="187.81641mm"
   height="187.81641mm"
   viewBox="0 0 18781.641 18781.641"
   preserveAspectRatio="xMidYMid"
   xml:space="preserve"
   id="svg4189"
   sodipodi:docname="pogona_white_square.svg"
   style="fill-rule:evenodd;stroke-width:28.22200012;stroke-linejoin:round"
   inkscape:version="0.92.1 r15371"><metadata
     id="metadata4193"><rdf:RDF><cc:Work
         rdf:about=""><dc:format>image/svg+xml</dc:format><dc:type
           rdf:resource="http://purl.org/dc/dcmitype/StillImage" /><dc:title></dc:title></cc:Work></rdf:RDF></metadata><sodipodi:namedview
     pagecolor="#ffffff"
     bordercolor="#666666"
     borderopacity="1"
     objecttolerance="10"
     gridtolerance="10"
     guidetolerance="10"
     inkscape:pageopacity="0"
     inkscape:pageshadow="2"
     inkscape:window-width="1920"
     inkscape:window-height="1017"
     id="namedview4191"
     showgrid="false"
     fit-margin-top="0"
     fit-margin-left="13.147225"
     fit-margin-right="13.147225"
     fit-margin-bottom="0"
     inkscape:zoom="3.219697"
     inkscape:cx="141.67349"
     inkscape:cy="457.74537"
     inkscape:window-x="-8"
     inkscape:window-y="-8"
     inkscape:window-maximized="1"
     inkscape:current-layer="svg4189"
     inkscape:pagecheckerboard="true" /><defs
     class="ClipPathGroup"
     id="defs3686"><clipPath
       id="presentation_clip_path"
       clipPathUnits="userSpaceOnUse"><rect
         x="0"
         y="0"
         width="21590"
         height="27940"
         id="rect3680" /></clipPath><clipPath
       id="presentation_clip_path_shrink"
       clipPathUnits="userSpaceOnUse"><rect
         x="21"
         y="27"
         width="21547"
         height="27885"
         id="rect3683" /></clipPath></defs><defs
     class="TextShapeIndex"
     id="defs3690"><g
       ooo:slide="id1"
       ooo:id-list="id3 id4 id5 id6 id7 id8 id9 id10 id11 id12 id13 id14 id15 id16 id17 id18 id19 id20 id21 id22 id23 id24 id25 id26 id27 id28 id29 id30 id31 id32 id33 id34 id35 id36 id37 id38 id39 id40 id41 id42 id43 id44 id45 id46 id47 id48 id49 id50 id51 id52 id53 id54 id55 id56 id57 id58 id59 id60 id61 id62 id63 id64"
       id="g3688" /></defs><defs
     class="EmbeddedBulletChars"
     id="defs3722"><g
       id="bullet-char-template(57356)"
       transform="matrix(4.8828125e-4,0,0,-4.8828125e-4,0,0)"><path
         d="M 580,1141 1163,571 580,0 -4,571 Z"
         id="path3692"
         inkscape:connector-curvature="0" /></g><g
       id="bullet-char-template(57354)"
       transform="matrix(4.8828125e-4,0,0,-4.8828125e-4,0,0)"><path
         d="M 8,1128 H 1137 V 0 H 8 Z"
         id="path3695"
         inkscape:connector-curvature="0" /></g><g
       id="bullet-char-template(10146)"
       transform="matrix(4.8828125e-4,0,0,-4.8828125e-4,0,0)"><path
         d="M 174,0 602,739 174,1481 1456,739 Z M 1358,739 309,1346 659,739 Z"
         id="path3698"
         inkscape:connector-curvature="0" /></g><g
       id="bullet-char-template(10132)"
       transform="matrix(4.8828125e-4,0,0,-4.8828125e-4,0,0)"><path
         d="M 2015,739 1276,0 H 717 l 543,543 H 174 v 393 h 1086 l -543,545 h 557 z"
         id="path3701"
         inkscape:connector-curvature="0" /></g><g
       id="bullet-char-template(10007)"
       transform="matrix(4.8828125e-4,0,0,-4.8828125e-4,0,0)"><path
         d="m 0,-2 c -7,16 -16,29 -25,39 l 381,530 c -94,256 -141,385 -141,387 0,25 13,38 40,38 9,0 21,-2 34,-5 21,4 42,12 65,25 l 27,-13 111,-251 280,301 64,-25 24,25 c 21,-10 41,-24 62,-43 C 886,937 835,863 770,784 769,783 710,716 594,584 L 774,223 c 0,-27 -21,-55 -63,-84 l 16,-20 C 717,90 699,76 672,76 641,76 570,178 457,381 L 164,-76 c -22,-34 -53,-51 -92,-51 -42,0 -63,17 -64,51 -7,9 -10,24 -10,44 0,9 1,19 2,30 z"
         id="path3704"
         inkscape:connector-curvature="0" /></g><g
       id="bullet-char-template(10004)"
       transform="matrix(4.8828125e-4,0,0,-4.8828125e-4,0,0)"><path
         d="M 285,-33 C 182,-33 111,30 74,156 52,228 41,333 41,471 c 0,78 14,145 41,201 34,71 87,106 158,106 53,0 88,-31 106,-94 l 23,-176 c 8,-64 28,-97 59,-98 l 735,706 c 11,11 33,17 66,17 42,0 63,-15 63,-46 V 965 c 0,-36 -10,-64 -30,-84 L 442,47 C 390,-6 338,-33 285,-33 Z"
         id="path3707"
         inkscape:connector-curvature="0" /></g><g
       id="bullet-char-template(9679)"
       transform="matrix(4.8828125e-4,0,0,-4.8828125e-4,0,0)"><path
         d="M 813,0 C 632,0 489,54 383,161 276,268 223,411 223,592 c 0,181 53,324 160,431 106,107 249,161 430,161 179,0 323,-54 432,-161 108,-107 162,-251 162,-431 0,-180 -54,-324 -162,-431 C 1136,54 992,0 813,0 Z"
         id="path3710"
         inkscape:connector-curvature="0" /></g><g
       id="bullet-char-template(8226)"
       transform="matrix(4.8828125e-4,0,0,-4.8828125e-4,0,0)"><path
         d="m 346,457 c -73,0 -137,26 -191,78 -54,51 -81,114 -81,188 0,73 27,136 81,188 54,52 118,78 191,78 73,0 134,-26 185,-79 51,-51 77,-114 77,-187 0,-75 -25,-137 -76,-188 -50,-52 -112,-78 -186,-78 z"
         id="path3713"
         inkscape:connector-curvature="0" /></g><g
       id="bullet-char-template(8211)"
       transform="matrix(4.8828125e-4,0,0,-4.8828125e-4,0,0)"><path
         d="M -4,459 H 1135 V 606 H -4 Z"
         id="path3716"
         inkscape:connector-curvature="0" /></g><g
       id="bullet-char-template(61548)"
       transform="matrix(4.8828125e-4,0,0,-4.8828125e-4,0,0)"><path
         d="m 173,740 c 0,163 58,303 173,419 116,115 255,173 419,173 163,0 302,-58 418,-173 116,-116 174,-256 174,-419 0,-163 -58,-303 -174,-418 C 1067,206 928,148 765,148 601,148 462,206 346,322 231,437 173,577 173,740 Z"
         id="path3719"
         inkscape:connector-curvature="0" /></g></defs><defs
     class="TextEmbeddedBitmaps"
     id="defs3724" /><g
     id="g3729"
     transform="translate(-1928.1712,-3799.8899)"><g
       id="id2"
       class="Master_Slide"><g
         id="bg-id2"
         class="Background" /><g
         id="bo-id2"
         class="BackgroundObjects" /></g></g><path
     style="fill:#ffffff;fill-opacity:1;stroke-width:35.06168365"
     d="m 180.10133,683.64864 c -9.00376,-6.44395 -11.4938,-6.37313 -6.81764,0.19393 1.49475,2.09918 2.40087,4.13354 2.0136,4.52081 -0.88618,0.88619 -37.33473,-32.3563 -44.95913,-41.00448 -7.25002,-8.22353 -15.1372,-24.08311 -16.99557,-34.17479 -3.88838,-21.11542 7.5036,-49.56895 25.52446,-63.75197 3.53411,-2.78145 6.57151,-5.43387 6.74979,-5.89425 0.17827,-0.46039 -4.9961,-6.31524 -11.49861,-13.01078 -40.825406,-42.03738 -69.203146,-91.41472 -78.993285,-137.44855 -3.553878,-16.71055 -4.453017,-44.3728 -1.938799,-59.64771 5.372756,-32.6417 19.159151,-62.21862 42.266359,-90.67699 16.696585,-20.56318 43.813635,-44.57429 70.606375,-62.51927 7.32162,-4.90382 13.33151,-9.25857 13.3553,-9.67724 0.0237,-0.41867 -3.73042,-2.59969 -8.34265,-4.84671 -12.87967,-6.27482 -26.56826,-20.74084 -34.50272,-36.46227 l -6.18434,-12.25372 0.0525,-15.07804 c 0.0581,-16.68096 1.56653,-23.395863 8.80867,-39.212712 l 4.22456,-9.226437 -0.68162,-16.862974 -0.68162,-16.862973 2.28967,5.371863 c 1.25932,2.954525 2.80833,5.358826 3.44225,5.34289 0.63391,-0.01594 1.77587,-2.712803 2.53769,-5.99304 l 1.38513,-5.964066 0.95831,5.257419 c 0.52707,2.891578 1.40221,4.983072 1.94475,4.647762 0.54255,-0.335309 3.03945,-4.280769 5.54868,-8.767688 2.50923,-4.486919 4.77311,-7.947157 5.03085,-7.689416 0.25774,0.25774 -0.62754,4.073597 -1.9673,8.479682 -3.76601,12.385396 -2.93238,13.089365 4.28816,3.62117 2.62291,-3.439382 5.0018,-6.020542 5.28644,-5.735909 0.28463,0.284632 -1.57983,4.756169 -4.14325,9.936749 -2.56342,5.180581 -4.31186,9.768144 -3.88542,10.194587 0.42645,0.426442 2.88352,-0.657188 5.46017,-2.408067 6.25306,-4.249061 6.92811,-3.031284 1.4827,2.67475 -4.32046,4.52725 -4.44144,4.927497 -5.15647,17.059548 -1.12229,19.042125 -6.12275,34.493853 -15.63886,48.325052 l -3.7942,5.51466 8.37586,4.65428 c 14.67823,8.15637 26.73104,16.89257 35.31737,25.59899 4.59008,4.65427 8.65212,8.46231 9.02675,8.46231 0.37464,0 0.68115,-1.36126 0.68115,-3.025 0,-11.27384 10.39274,-19.85507 29.03864,-23.97705 19.05971,-4.21346 70.69695,-1.50467 101.09783,5.3034 2.4633,0.55164 2.79529,1.39873 2.79529,7.13229 0,10.74719 -3.54766,37.69322 -6.97388,52.96965 -8.86058,39.5064 -22.5821,59.3189 -41.60793,60.07759 -2.66166,0.1061 -4.83936,0.57311 -4.83936,1.03771 0,0.46461 2.68975,2.89597 5.97723,5.40303 3.28748,2.50706 8.30694,7.54125 11.15437,11.18707 5.20718,6.66723 13.90986,22.38055 13.92116,25.13563 0.0137,3.32009 2.81082,2.78767 7.7867,-1.48211 6.54684,-5.6178 22.74267,-13.6522 32.50503,-16.12501 4.04982,-1.02583 11.68184,-2.22529 16.96005,-2.66547 9.47853,-0.79048 9.65337,-0.86809 14.19522,-6.30161 5.55669,-6.64757 6.97127,-6.24742 2.56874,0.72664 -1.75757,2.78415 -3.19556,5.35274 -3.19556,5.70796 0,1.59846 3.49569,0.27777 11.5387,-4.35936 4.77479,-2.75287 8.9164,-4.77025 9.20358,-4.48307 0.28718,0.28717 -2.29178,2.89487 -5.73102,5.79488 -3.43924,2.90001 -5.96522,5.73866 -5.61328,6.30812 0.35195,0.56946 4.37076,-0.31886 8.93071,-1.97404 4.55994,-1.65516 8.46773,-2.83247 8.68396,-2.61624 0.21623,0.21622 -3.2574,2.77156 -7.71916,5.67852 -4.46178,2.90696 -8.11232,5.77877 -8.11232,6.38181 0,0.60303 2.65553,1.14152 5.90118,1.19664 l 5.90117,0.10026 -6.56855,1.93529 c -7.51239,2.21335 -7.76806,4.08085 -0.82541,6.02876 l 4.83043,1.35529 -4.15353,0.83071 c -2.28444,0.45689 -9.53447,0.82678 -16.11117,0.822 -11.8755,-0.009 -12.043,0.034 -24.38118,6.21064 -16.64237,8.33134 -29.99262,11.635 -44.26083,10.95283 -9.99144,-0.4777 -11.89363,-1.01064 -22.46163,-6.29318 -17.82385,-8.90943 -30.5728,-20.93673 -36.54751,-34.47871 -1.20286,-2.7264 -2.63849,-4.95705 -3.19029,-4.95705 -1.43243,0 -1.25844,1.44907 0.91298,7.60351 8.09793,22.95199 11.36615,64.76694 7.46512,95.51178 -4.98958,39.32396 -20.59659,84.37347 -40.8497,117.91234 -3.88297,6.43013 -6.73125,12.01984 -6.32952,12.42157 0.40173,0.40174 1.44107,-0.24146 2.30965,-1.42929 2.39369,-3.27359 14.2096,-8.03688 25.72388,-10.36997 18.06179,-3.65979 42.15944,-0.32528 57.55419,7.96407 8.98483,4.8379 22.22772,17.85149 28.52063,28.02679 4.62003,7.47032 23.07774,51.36487 23.07774,54.88149 0,0.62827 -1.48694,-0.94752 -3.3043,-3.50176 -2.93665,-4.12735 -5.39217,-5.92433 -5.39217,-3.94607 0,0.38388 1.44948,5.73629 3.22107,11.89422 1.77158,6.15793 3.00463,11.41268 2.7401,11.6772 -0.26454,0.26453 -2.05458,-3.13117 -3.97789,-7.54599 -1.92331,-4.41483 -3.99494,-8.02695 -4.60363,-8.02695 -0.60869,0 -1.13395,2.65552 -1.16725,5.90117 l -0.0605,5.90118 -3.17685,-7.76471 c -1.74726,-4.27059 -3.64609,-7.7647 -4.21962,-7.7647 -0.57354,0 -1.21317,2.65553 -1.42144,5.90117 l -0.37866,5.90118 -2.94677,-7.76471 c -1.62072,-4.27058 -3.40552,-7.7647 -3.96622,-7.7647 -0.56068,0 -1.19135,2.376 -1.40146,5.28 -0.37127,5.13141 -0.4637,4.9867 -3.28491,-5.14218 -1.59659,-5.7322 -3.2092,-13.39004 -3.58358,-17.01743 -0.67608,-6.55065 -0.73627,-6.63101 -8.89946,-11.88115 -4.52033,-2.90723 -12.49913,-9.64027 -17.73069,-14.96231 l -9.5119,-9.67643 -7.92528,3.70867 c -11.99226,5.61187 -27.06663,9.04528 -37.19941,8.47273 -4.69103,-0.26507 -8.52914,10e-4 -8.52914,0.59224 0,2.01078 26.68206,27.54381 39.76427,38.05186 19.32525,15.52267 36.88862,26.70602 57.76043,36.77857 27.76079,13.39711 49.00028,19.90341 76.77893,23.51972 109.92465,14.31032 211.54271,-55.86943 254.47723,-175.74782 5.44988,-15.21672 5.99805,-14.25897 1.77764,3.10588 -21.74686,89.47747 -101.31154,172.83162 -193.25471,202.45897 -29.40444,9.47515 -50.53731,12.43044 -82.00968,11.4685 -17.75445,-0.54264 -26.38459,-1.41712 -37.93231,-3.84359 -54.84207,-11.52372 -104.80579,-41.58763 -150.28415,-90.4282 -5.46636,-5.87047 -10.54916,-10.73574 -11.29512,-10.8117 -0.74595,-0.0759 -2.01356,2.05568 -2.81689,4.73695 -2.17016,7.24336 -11.76856,19.21137 -21.77132,27.14613 -4.86276,3.85742 -9.03141,7.13272 -9.26367,7.27845 -0.23227,0.14574 2.33931,5.78137 5.71462,12.52366 3.50901,7.00938 6.84747,15.83346 7.79626,20.60683 l 1.65934,8.34813 7.69333,4.22878 c 13.6497,7.50282 26.15062,17.50508 16.22698,12.98356 -5.59007,-2.547 -5.14983,-0.10572 0.94902,5.26274 3.21011,2.82566 5.60197,5.37216 5.31523,5.6589 -0.28673,0.28673 -2.54024,-0.44142 -5.00779,-1.61811 -6.73287,-3.21068 -6.87083,-1.12164 -0.30744,4.65568 3.21011,2.82566 5.60197,5.37216 5.31523,5.6589 -0.28673,0.28673 -2.54024,-0.44142 -5.00779,-1.61811 -6.78337,-3.23477 -6.79338,-1.18011 -0.0246,5.04822 7.99478,7.35643 5.7028,7.05434 -5.09147,-0.67108 z"
     id="path299"
     inkscape:connector-curvature="0"
     transform="scale(26.458333)" /></svg>