<?xml version="1.0" encoding="UTF-8" standalone="no"?>
<!-- Created with Inkscape (http://www.inkscape.org/) -->

<svg
   xmlns:ooo="http://xml.openoffice.org/svg/export"
   xmlns:dc="http://purl.org/dc/elements/1.1/"
   xmlns:cc="http://creativecommons.org/ns#"
   xmlns:rdf="http://www.w3.org/1999/02/22-rdf-syntax-ns#"
   xmlns:svg="http://www.w3.org/2000/svg"
   xmlns="http://www.w3.org/2000/svg"
   xmlns:sodipodi="http://sodipodi.sourceforge.net/DTD/sodipodi-0.dtd"
   xmlns:inkscape="http://www.inkscape.org/namespaces/inkscape"
   width="161.52196mm"
   height="187.81641mm"
   viewBox="0 0 161.52196 187.81641"
   version="1.1"
   id="svg8"
   inkscape:version="0.92.1 r15371"
   sodipodi:docname="pogona_no_outline.svg"
   inkscape:export-filename="C:\Users\Alex\Documents\pogonalogos\pogona_ico.png"
   inkscape:export-xdpi="4.3276305"
   inkscape:export-ydpi="4.3276305">
  <defs
     id="defs2">
    <clipPath
       clipPathUnits="userSpaceOnUse"
       id="presentation_clip_path">
      <rect
         id="rect3680"
         height="27940"
         width="21590"
         y="0"
         x="0" />
    </clipPath>
    <clipPath
       clipPathUnits="userSpaceOnUse"
       id="presentation_clip_path_shrink">
      <rect
         id="rect3683"
         height="27885"
         width="21547"
         y="27"
         x="21" />
    </clipPath>
    <g
       id="g3688"
       ooo:id-list="id3 id4 id5 id6 id7 id8 id9 id10 id11 id12 id13 id14 id15 id16 id17 id18 id19 id20 id21 id22 id23 id24 id25 id26 id27 id28 id29 id30 id31 id32 id33 id34 id35 id36 id37 id38 id39 id40 id41 id42 id43 id44 id45 id46 id47 id48 id49 id50 id51 id52 id53 id54 id55 id56 id57 id58 id59 id60 id61 id62 id63 id64"
       ooo:slide="id1" />
    <g
       transform="matrix(4.8828125e-4,0,0,-4.8828125e-4,0,0)"
       id="bullet-char-template(57356)">
      <path
         inkscape:connector-curvature="0"
         id="path3692"
         d="M 580,1141 1163,571 580,0 -4,571 Z" />
    </g>
    <g
       transform="matrix(4.8828125e-4,0,0,-4.8828125e-4,0,0)"
       id="bullet-char-template(57354)">
      <path
         inkscape:connector-curvature="0"
         id="path3695"
         d="M 8,1128 H 1137 V 0 H 8 Z" />
    </g>
    <g
       transform="matrix(4.8828125e-4,0,0,-4.8828125e-4,0,0)"
       id="bullet-char-template(10146)">
      <path
         inkscape:connector-curvature="0"
         id="path3698"
         d="M 174,0 602,739 174,1481 1456,739 Z M 1358,739 309,1346 659,739 Z" />
    </g>
    <g
       transform="matrix(4.8828125e-4,0,0,-4.8828125e-4,0,0)"
       id="bullet-char-template(10132)">
      <path
         inkscape:connector-curvature="0"
         id="path3701"
         d="M 2015,739 1276,0 H 717 l 543,543 H 174 v 393 h 1086 l -543,545 h 557 z" />
    </g>
    <g
       transform="matrix(4.8828125e-4,0,0,-4.8828125e-4,0,0)"
       id="bullet-char-template(10007)">
      <path
         inkscape:connector-curvature="0"
         id="path3704"
         d="m 0,-2 c -7,16 -16,29 -25,39 l 381,530 c -94,256 -141,385 -141,387 0,25 13,38 40,38 9,0 21,-2 34,-5 21,4 42,12 65,25 l 27,-13 111,-251 280,301 64,-25 24,25 c 21,-10 41,-24 62,-43 C 886,937 835,863 770,784 769,783 710,716 594,584 L 774,223 c 0,-27 -21,-55 -63,-84 l 16,-20 C 717,90 699,76 672,76 641,76 570,178 457,381 L 164,-76 c -22,-34 -53,-51 -92,-51 -42,0 -63,17 -64,51 -7,9 -10,24 -10,44 0,9 1,19 2,30 z" />
    </g>
    <g
       transform="matrix(4.8828125e-4,0,0,-4.8828125e-4,0,0)"
       id="bullet-char-template(10004)">
      <path
         inkscape:connector-curvature="0"
         id="path3707"
         d="M 285,-33 C 182,-33 111,30 74,156 52,228 41,333 41,471 c 0,78 14,145 41,201 34,71 87,106 158,106 53,0 88,-31 106,-94 l 23,-176 c 8,-64 28,-97 59,-98 l 735,706 c 11,11 33,17 66,17 42,0 63,-15 63,-46 V 965 c 0,-36 -10,-64 -30,-84 L 442,47 C 390,-6 338,-33 285,-33 Z" />
    </g>
    <g
       transform="matrix(4.8828125e-4,0,0,-4.8828125e-4,0,0)"
       id="bullet-char-template(9679)">
      <path
         inkscape:connector-curvature="0"
         id="path3710"
         d="M 813,0 C 632,0 489,54 383,161 276,268 223,411 223,592 c 0,181 53,324 160,431 106,107 249,161 430,161 179,0 323,-54 432,-161 108,-107 162,-251 162,-431 0,-180 -54,-324 -162,-431 C 1136,54 992,0 813,0 Z" />
    </g>
    <g
       transform="matrix(4.8828125e-4,0,0,-4.8828125e-4,0,0)"
       id="bullet-char-template(8226)">
      <path
         inkscape:connector-curvature="0"
         id="path3713"
         d="m 346,457 c -73,0 -137,26 -191,78 -54,51 -81,114 -81,188 0,73 27,136 81,188 54,52 118,78 191,78 73,0 134,-26 185,-79 51,-51 77,-114 77,-187 0,-75 -25,-137 -76,-188 -50,-52 -112,-78 -186,-78 z" />
    </g>
    <g
       transform="matrix(4.8828125e-4,0,0,-4.8828125e-4,0,0)"
       id="bullet-char-template(8211)">
      <path
         inkscape:connector-curvature="0"
         id="path3716"
         d="M -4,459 H 1135 V 606 H -4 Z" />
    </g>
    <g
       transform="matrix(4.8828125e-4,0,0,-4.8828125e-4,0,0)"
       id="bullet-char-template(61548)">
      <path
         inkscape:connector-curvature="0"
         id="path3719"
         d="m 173,740 c 0,163 58,303 173,419 116,115 255,173 419,173 163,0 302,-58 418,-173 116,-116 174,-256 174,-419 0,-163 -58,-303 -174,-418 C 1067,206 928,148 765,148 601,148 462,206 346,322 231,437 173,577 173,740 Z" />
    </g>
  </defs>
  <sodipodi:namedview
     id="base"
     pagecolor="#ffffff"
     bordercolor="#666666"
     borderopacity="1.0"
     inkscape:pageopacity="0.0"
     inkscape:pageshadow="2"
     inkscape:zoom="0.7"
     inkscape:cx="86.773452"
     inkscape:cy="512.05647"
     inkscape:document-units="mm"
     inkscape:current-layer="layer1"
     showgrid="false"
     fit-margin-top="0"
     fit-margin-left="0"
     fit-margin-right="0"
     fit-margin-bottom="0"
     inkscape:window-width="1920"
     inkscape:window-height="1017"
     inkscape:window-x="-8"
     inkscape:window-y="-8"
     inkscape:window-maximized="1" />
  <metadata
     id="metadata5">
    <rdf:RDF>
      <cc:Work
         rdf:about="">
        <dc:format>image/svg+xml</dc:format>
        <dc:type
           rdf:resource="http://purl.org/dc/dcmitype/StillImage" />
        <dc:title></dc:title>
      </cc:Work>
    </rdf:RDF>
  </metadata>
  <g
     inkscape:label="Layer 1"
     inkscape:groupmode="layer"
     id="layer1"
     transform="translate(-25.072358,-54.925129)">
    <path
       style="fill:#ff9955;fill-opacity:1;stroke-width:1.42857146"
       d="M 103.06005,669.07358 C 82.514949,650.04085 79.080562,646.31281 72.68655,636.10302 60.59085,616.78892 60.184896,593.42521 71.554512,570.95138 73.541996,567.02281 79.90226,559.07184 85.688433,553.28256 L 96.208748,542.75661 83.701222,529.66462 C 43.5291,487.61529 16.296099,440.72579 6.0417775,395.95138 1.8648808,377.71341 0.94619819,349.81726 3.9340268,331.94875 11.854119,284.58316 38.962433,242.18054 86.907982,202.16151 c 8.947473,-7.46825 32.380718,-24.50135 39.464358,-28.68576 2.25889,-1.33436 4.10707,-2.81207 4.10707,-3.28379 0,-0.47172 -3.42474,-2.27717 -7.61054,-4.01208 -10.26634,-4.25516 -22.841,-15.78634 -31.232364,-28.64061 C 82.23079,123.13115 79.944232,114.66539 80.81471,97.4726 81.40505,85.812833 82.320305,81.8178 87.054313,70.237093 92.543883,56.808072 92.601899,56.466776 92.583253,37.711625 92.566045,20.40358 92.7252,19.22202 94.415966,24.105681 c 2.614624,7.552159 4.300647,8.746438 5.41837,3.838048 2.810894,-12.343838 3.237214,-13.092111 3.373374,-5.920922 0.0709,3.732143 0.61099,6.78506 1.20027,6.784262 0.58929,-7.99e-4 2.90158,-3.259933 5.13843,-7.24252 2.23685,-3.982588 4.36988,-6.9382 4.74005,-6.568026 0.37017,0.370173 -0.30033,3.950736 -1.49,7.956806 -2.53318,8.530127 -1.12492,9.276078 4.23803,2.244882 2.11384,-2.771386 4.08438,-4.797849 4.37898,-4.503252 0.29459,0.294597 -1.14674,4.210406 -3.20297,8.701798 -2.05622,4.491392 -3.37125,8.533508 -2.92228,8.982478 0.44897,0.448971 2.4209,-0.235056 4.38206,-1.520059 5.43041,-3.558143 6.07466,-2.801133 1.59521,1.874411 -3.67742,3.838392 -4.08127,5.309282 -4.56662,16.632122 -0.8396,19.58699 -6.2042,36.10355 -15.93381,49.057101 -3.038417,4.04521 -3.322055,5.10999 -1.625917,6.10368 1.130007,0.66202 7.811957,4.56416 14.848787,8.67142 7.70936,4.49981 17.36134,11.86713 24.28571,18.53719 6.32031,6.0882 11.56808,11.07034 11.66171,11.07143 0.0936,0.001 0.53635,-2.25412 0.98382,-5.01158 1.72068,-10.60338 11.02721,-17.97763 28.13167,-22.29082 12.34486,-3.11298 54.52958,-2.34369 80,1.45889 11.39286,1.70088 21.69197,3.38708 22.88693,3.74709 4.52211,1.36243 -1.70389,51.99931 -9.39173,76.38413 -8.5645,27.16552 -20.12359,41.31955 -35.645,43.64714 l -6.21759,0.93238 10.309,10.21023 c 8.02403,7.94717 11.67279,13.01133 16.46193,22.84782 l 6.15293,12.63757 3.7932,-3.56472 c 10.91606,-10.25852 30.75983,-18.3922 49.50747,-20.2924 8.87307,-0.89934 10.60372,-1.59224 15.35714,-6.14858 6.1035,-5.85042 6.63133,-5.44949 2.35889,1.79176 -3.77657,6.40081 -1.78477,6.59902 7.99826,0.79594 9.4892,-5.62879 11.32898,-5.37017 4.28571,0.60244 -3.14286,2.6651 -5.26698,5.29927 -4.72028,5.8537 0.5467,0.55443 4.03072,-0.0267 7.74225,-1.29131 3.71155,-1.26465 6.98512,-2.0625 7.2746,-1.77302 0.2895,0.28949 -2.71238,2.60463 -6.67083,5.14476 -3.95844,2.54013 -7.19717,5.19426 -7.19717,5.89807 0,0.7038 2.08929,1.32856 4.64286,1.38833 l 4.64286,0.10871 -5,1.80449 c -6.3111,2.27766 -6.31123,3.71031 -5e-4,5.83511 4.56794,1.53802 3.56131,1.75415 -11.66206,2.5039 -16.20604,0.79815 -17.0262,1.0006 -29.9995,7.40553 -16.0619,7.92977 -30.97813,11.40432 -44.05223,10.26137 -19.69147,-1.72141 -46.29566,-19.88304 -55.18197,-37.67055 -5.07156,-10.15162 -4.6846,-9.53826 -5.50197,-8.72089 -0.37617,0.37617 1.16764,8.03689 3.4307,17.0238 12.5914,50.00236 8.61167,100.50587 -12.26346,155.62559 -5.63583,14.88111 -18.92211,42.36284 -25.88343,53.538 -4.17157,6.69671 -5.05117,11.49071 -1.12253,6.11797 0.99836,-1.36533 6.24936,-4.19212 11.66892,-6.28177 7.97864,-3.07637 12.98701,-3.92617 26.31916,-4.46573 26.02794,-1.05336 42.56054,4.40926 58.84777,19.44414 11.97638,11.05552 18.08603,21.0804 27.3637,44.89916 10.46025,26.85487 10.47608,26.90836 6.69268,22.61728 -1.65684,-1.87917 -3.4187,-3.01041 -3.91523,-2.51387 -0.49654,0.49653 0.48383,5.67497 2.17858,11.50763 4.09648,14.09847 3.81362,14.78042 -1.53829,3.70862 l -4.48854,-9.28572 -0.80432,6.42857 -0.80433,6.42857 -2.78092,-7.5 c -1.52952,-4.125 -3.29679,-7.5 -3.92729,-7.5 -0.6305,0 -1.17219,2.73215 -1.20374,6.07143 l -0.0574,6.07143 -3.36856,-7.80864 c -4.22346,-9.79037 -6.47007,-10.83354 -5.65481,-2.62569 l 0.61071,6.14862 -2.18956,-5.64445 c -1.20425,-3.10444 -3.19681,-11.14015 -4.4279,-17.85714 l -2.2383,-12.21273 -6.95264,-4.18161 c -3.82394,-2.29989 -11.52487,-8.78456 -17.11316,-14.4104 l -10.16052,-10.22879 -11.62333,4.68659 c -13.42257,5.41204 -28.94077,8.40854 -36.92999,7.13101 -3.05328,-0.48824 -5.55143,-0.3624 -5.55143,0.27963 0,1.9815 31.52002,32.20883 43.09799,41.33047 40.853,32.18583 85.78936,51.80485 131.97033,57.61766 18.68178,2.3515 52.86377,0.96459 70.93025,-2.87796 81.53959,-17.34253 148.27449,-79.74918 181.85552,-170.06088 4.07111,-10.94876 4.87554,-12.32912 4.16258,-7.14286 -2.85771,20.78786 -20.3091,61.59956 -37.26291,87.14286 -44.34963,66.81887 -112.19669,114.27025 -186.18233,130.21358 -20.31238,4.37716 -67.9034,4.7821 -87.85714,0.74756 -31.6866,-6.40687 -65.87892,-20.81519 -93.57143,-39.43011 -20.28629,-13.63646 -33.03166,-24.34412 -53.30974,-44.78665 -10.07036,-10.15203 -18.4726,-18.23333 -18.67164,-17.95845 -0.19905,0.27488 -2.07647,4.08284 -4.17207,8.46212 -3.53614,7.3897 -17.60083,22.69565 -26.365754,28.69263 l -3.233488,2.21236 5.768252,11.36833 c 3.17254,6.25258 6.61107,15.50744 7.64118,20.56634 1.86308,9.1496 1.91667,9.22263 10.1843,13.87837 4.57125,2.5742 10.94493,6.65362 14.16373,9.06535 l 5.85237,4.38498 -5,-0.9144 -5,-0.9144 6.92393,6.49192 c 7.42832,6.96482 7.5685,7.78028 0.72952,4.2437 -6.83947,-3.53682 -6.82401,-0.85778 0.0303,5.24777 6.7644,6.02547 6.75703,6.83353 -0.0303,3.32365 -5.97226,-3.08837 -6.83512,-1.43351 -1.92488,3.69168 5.51983,5.76147 3.31173,5.38267 -5.24717,-0.90015 -7.63189,-5.60231 -10.09066,-5.57303 -6.38919,0.0761 2.57463,3.92938 2.88115,5.14167 1.26494,5.00275 -0.58929,-0.0507 -9.87443,-8.24707 -20.63365,-18.21428 z"
       id="path316"
       inkscape:connector-curvature="0"
       transform="matrix(0.26458333,0,0,0.26458333,25.072358,54.925129)" />
  </g>
</svg>
